<?xml version="1.0" encoding="utf-8"?>
<!-- Generator: Adobe Illustrator 20.1.0, SVG Export Plug-In . SVG Version: 6.00 Build 0)  -->
<svg version="1.1" id="_x31_8889b98-22db-46a1-bb27-de3b4b3fbb0b"
	 xmlns="http://www.w3.org/2000/svg" xmlns:xlink="http://www.w3.org/1999/xlink" x="0px" y="0px" viewBox="0 0 337 572.3"
	 style="enable-background:new 0 0 337 572.3;" xml:space="preserve">
<style type="text/css">
	.st0{fill:#FF0000;}
</style>
<title>bolt_only</title>
<path class="st0" d="M334.3,249.4c-1.2-0.8-2.4-1.2-3.7-1.2H147.9L213.8,0.5H79.6L3.1,288.4c-11.4,43.3,15.9,78.7,60.6,78.7H147
	L93.8,568.8c-0.3,1.3,0.5,2.6,1.8,2.9c0.9,0.2,1.9-0.1,2.4-0.9l237.4-313.1C337.4,255.1,336.9,251.4,334.3,249.4z M232.6,310.1H58.1
	V310L134,27.8h11.3l-73,271.3h160.3c3,0,5.4,2.4,5.4,5.5C238,307.6,235.6,310.1,232.6,310.1z"/>
</svg>
